<svg xmlns="http://www.w3.org/2000/svg" viewBox="0 0 1000 190" width="1000" height="190" role="img" aria-label="Thanks for stopping by">
<defs><clipPath id="card"><rect width="1000" height="190" rx="34"/></clipPath><clipPath id="gl"><rect x="14" y="14" width="972" height="162" rx="32"/></clipPath>
<filter id="blur" x="-50%" y="-50%" width="200%" height="200%"><feGaussianBlur stdDeviation="40"/></filter>
<linearGradient id="bg" x1="0" y1="0" x2="1" y2="1"><stop offset="0" stop-color="#0a3fe0"/><stop offset="1" stop-color="#42b9ff"/></linearGradient>
<linearGradient id="fill" x1="0" y1="0" x2="0" y2="1"><stop offset="0" stop-color="#fff" stop-opacity=".22"/><stop offset=".55" stop-color="#fff" stop-opacity=".07"/><stop offset="1" stop-color="#fff" stop-opacity=".12"/></linearGradient>
<linearGradient id="rim" x1="0" y1="0" x2="1" y2="1"><stop offset="0" stop-color="#fff" stop-opacity=".85"/><stop offset=".35" stop-color="#fff" stop-opacity=".12"/><stop offset=".65" stop-color="#fff" stop-opacity=".1"/><stop offset="1" stop-color="#fff" stop-opacity=".6"/></linearGradient>
<linearGradient id="sheen" x1="0" x2="1"><stop offset="0" stop-color="#fff" stop-opacity="0"/><stop offset=".5" stop-color="#fff" stop-opacity=".15"/><stop offset="1" stop-color="#fff" stop-opacity="0"/></linearGradient>
<linearGradient id="chip" x1="0" y1="0" x2="0" y2="1"><stop offset="0" stop-color="#fff" stop-opacity=".28"/><stop offset="1" stop-color="#fff" stop-opacity=".08"/></linearGradient>
<linearGradient id="ink" x1="0" x2="1"><stop offset="0" stop-color="#fff"/><stop offset=".6" stop-color="#cfe0ff"/><stop offset="1" stop-color="#bfe9ff"/></linearGradient>
</defs>
<rect width="1000" height="190" rx="34" fill="url(#bg)"/><g clip-path="url(#card)"><defs><linearGradient id="wg" x1="0" y1="0" x2="1" y2="1"><stop offset="0" stop-color="#8fbaff"/><stop offset=".3" stop-color="#4f86ff"/><stop offset=".65" stop-color="#2058ee"/><stop offset="1" stop-color="#0a2ec2"/></linearGradient>
<linearGradient id="wv" x1="0" y1="0" x2="1" y2="0"><stop offset="0" stop-color="#0b2fc8" stop-opacity=".0"/><stop offset=".5" stop-color="#0b2fc8" stop-opacity=".7"/><stop offset="1" stop-color="#061f9a" stop-opacity=".85"/></linearGradient>
<linearGradient id="wl" x1="0" y1="0" x2="1" y2="0"><stop offset="0" stop-color="#fff" stop-opacity=".0"/><stop offset=".45" stop-color="#cfe6ff" stop-opacity=".55"/><stop offset="1" stop-color="#fff" stop-opacity="0"/></linearGradient>
<radialGradient id="wc"><stop offset="0" stop-color="#fff2c9" stop-opacity=".7"/><stop offset="1" stop-color="#fff2c9" stop-opacity="0"/></radialGradient>
<filter id="ws" x="-20%" y="-20%" width="140%" height="140%"><feGaussianBlur stdDeviation="10"/></filter></defs>
<rect width="1000" height="190" fill="url(#wg)"/>
<ellipse cx="80.0" cy="9.5" rx="280.0" ry="133.0" fill="url(#wc)"/>
<g filter="url(#ws)"><path d="M-50.0 180.5 C200.0 19.0 450.0 218.49999999999997 1050.0 38.0 L1050.0 209.00000000000003 L-50.0 209.00000000000003Z" fill="url(#wv)"><animateTransform attributeName="transform" type="translate" values="0 0;-30.0 11.4;0 0" dur="16s" repeatCount="indefinite"/></path>
<path d="M-50.0 95.0 C300.0 -38.0 600.0 152.0 1050.0 9.5 L1050.0 66.5 C600.0 199.5 300.0 28.5 -50.0 152.0Z" fill="url(#wl)" opacity=".8"><animateTransform attributeName="transform" type="translate" values="0 0;40.0 -9.5;0 0" dur="20s" repeatCount="indefinite"/></path></g>
<path d="M-20.0 117.8 C280.0 3.8000000000000003 550.0 180.5 1020.0 22.8" fill="none" stroke="#fff" stroke-opacity=".7" stroke-width="1.5"><animateTransform attributeName="transform" type="translate" values="0 0;20.0 7.6000000000000005;0 0" dur="18s" repeatCount="indefinite"/></path>
<path d="M-20.0 136.79999999999998 C300.0 38.0 580.0 190.0 1020.0 53.2" fill="none" stroke="#fff" stroke-opacity=".28" stroke-width="1"/></g>
<rect x="14" y="14" width="972" height="162" rx="32" fill="#001a70" opacity=".16"/><rect x="14" y="14" width="972" height="162" rx="32" fill="url(#fill)"/><g clip-path="url(#gl)"><rect x="-300" y="0" width="220" height="190" fill="url(#sheen)" transform="skewX(-18)"><animate attributeName="x" values="-300;1250;1250" keyTimes="0;.3;1" dur="10s" repeatCount="indefinite"/></rect></g><rect x="15" y="15" width="970" height="160" rx="31" fill="none" stroke="url(#rim)" stroke-width="1.6"/>
<text x="500" y="92" font-family="-apple-system,'SF Pro Display','SF Pro Text','Segoe UI',Inter,'Helvetica Neue',Arial,sans-serif" font-size="38" font-weight="700" fill="url(#ink)" fill-opacity="1" text-anchor="middle">Thanks for stopping by</text><text x="500" y="128" font-family="-apple-system,'SF Pro Display','SF Pro Text','Segoe UI',Inter,'Helvetica Neue',Arial,sans-serif" font-size="18" font-weight="400" fill="#fff" fill-opacity="0.75" text-anchor="middle">Let's build something great together.</text><g transform="translate(445,146)"><rect width="110" height="26" rx="13" fill="url(#chip)" stroke="#fff" stroke-opacity=".4"/><circle cx="16" cy="13" r="4" fill="#30d158"><animate attributeName="opacity" values="1;.3;1" dur="2.4s" repeatCount="indefinite"/></circle><text x="28" y="18" font-family="-apple-system,'SF Pro Display','SF Pro Text','Segoe UI',Inter,'Helvetica Neue',Arial,sans-serif" font-size="12.5" font-weight="600" fill="#fff" fill-opacity="1" >Available</text></g>
</svg>